<svg width="13" height="8" viewBox="0 0 13 8" fill="none" xmlns="http://www.w3.org/2000/svg">
    <path d="M12.4955 3.69583C11.3119 1.49146 8.96872 0 6.28571 0C3.60271 0 1.25888 1.4925 0.0759406 3.69604C0.0260131 3.79031 0 3.89447 0 4.0001C0 4.10574 0.0260131 4.20989 0.0759406 4.30417C1.25953 6.50854 3.60271 8 6.28571 8C8.96872 8 11.3126 6.5075 12.4955 4.30396C12.5454 4.20969 12.5714 4.10553 12.5714 3.9999C12.5714 3.89426 12.5454 3.79011 12.4955 3.69583ZM6.28571 7C5.66411 7 5.05647 6.82405 4.53963 6.49441C4.02279 6.16476 3.61996 5.69623 3.38209 5.14805C3.14421 4.59987 3.08197 3.99667 3.20324 3.41473C3.32451 2.83279 3.62384 2.29824 4.06337 1.87868C4.50291 1.45912 5.06292 1.1734 5.67257 1.05764C6.28223 0.941889 6.91415 1.0013 7.48844 1.22836C8.06272 1.45542 8.55357 1.83994 8.89891 2.33329C9.24425 2.82664 9.42858 3.40666 9.42858 4C9.42878 4.39402 9.34762 4.78421 9.18975 5.14828C9.03188 5.51234 8.80038 5.84313 8.5085 6.12175C8.21662 6.40036 7.87007 6.62133 7.48867 6.77203C7.10727 6.92273 6.6985 7.00019 6.28571 7ZM6.28571 2C6.0987 2.00249 5.91289 2.02905 5.73331 2.07896C5.88134 2.27097 5.95237 2.50727 5.93353 2.74499C5.91469 2.98271 5.80723 3.20611 5.63062 3.37469C5.45402 3.54326 5.21998 3.64584 4.97094 3.66382C4.7219 3.68181 4.47435 3.614 4.27319 3.47271C4.15864 3.87554 4.17932 4.30252 4.33231 4.69354C4.4853 5.08457 4.76291 5.41995 5.12604 5.65249C5.48918 5.88503 5.91957 6.00301 6.35664 5.98983C6.79371 5.97665 7.21544 5.83298 7.56248 5.57902C7.90952 5.32507 8.16439 4.97363 8.29122 4.57416C8.41805 4.1747 8.41045 3.74733 8.2695 3.3522C8.12854 2.95708 7.86132 2.61409 7.50546 2.37152C7.14959 2.12895 6.723 1.99902 6.28571 2Z" fill="white"/>
</svg>